<?xml version="1.0" encoding="UTF-8" standalone="no" ?>
<!DOCTYPE svg PUBLIC "-//W3C//DTD SVG 1.1//EN" "http://www.w3.org/Graphics/SVG/1.1/DTD/svg11.dtd">
<svg xmlns="http://www.w3.org/2000/svg" xmlns:xlink="http://www.w3.org/1999/xlink" version="1.1" width="640" height="480" viewBox="0 0 640 480" xml:space="preserve">
<desc>Created with Fabric.js 3.6.3</desc>
<defs>
</defs>
<g transform="matrix(0.31 0 0 0.31 318.26 238.02)"  >
<path style="stroke: rgb(235,235,214); stroke-width: 6; stroke-dasharray: none; stroke-linecap: butt; stroke-dashoffset: 0; stroke-linejoin: miter; stroke-miterlimit: 4; fill: rgb(235,235,214); fill-rule: nonzero; opacity: 1;"  transform=" translate(-3474.45, -4394.56)" d="M 3130 5107 c -179 -90 -320 -236 -391 -407 c -107 -255 -53 -586 136 -838 c 44 -59 55 -98 34 -119 c -19 -19 -6 -66 21 -80 c 37 -19 1044 -18 1080 0 c 26 13 29 34 15 104 c -6 28 -1 41 44 100 c 144 192 216 431 190 634 c -32 260 -206 488 -464 611 c -60 28 -60 28 -330 28 c -270 0 -270 0 -335 -33 z m 7 -289 c 15 -7 58 -30 96 -51 c 67 -40 67 -40 175 -30 c 125 11 186 3 256 -31 c 106 -53 230 -177 224 -226 c -4 -37 -62 -61 -163 -68 c -163 -10 -261 26 -368 135 c -34 35 -72 66 -85 69 c -12 4 -65 -6 -118 -21 c -67 -19 -99 -24 -106 -17 c -14 14 10 51 56 88 c 34 27 34 27 10 66 c -14 21 -27 52 -31 68 c -6 34 7 38 54 18 z m 987 -817 c 6 -9 -44 -93 -75 -126 c -10 -11 -29 -41 -42 -65 c -24 -45 -24 -45 -540 -48 c -516 -2 -516 -2 -522 20 c -4 13 -24 46 -44 73 c -63 86 -92 135 -86 145 c 8 13 1302 14 1309 1 z m -107 -277 c 3 -9 2 -24 -4 -33 c -9 -14 -64 -16 -549 -16 c -512 0 -539 1 -542 18 c -10 49 -29 47 548 47 c 491 0 541 -1 547 -16 z" stroke-linecap="round" />
</g>
<g transform="matrix(0.31 0 0 0.31 388.23 275.04)"  >
<path style="stroke: rgb(235,235,214); stroke-width: 6; stroke-dasharray: none; stroke-linecap: butt; stroke-dashoffset: 0; stroke-linejoin: miter; stroke-miterlimit: 4; fill: rgb(235,235,214); fill-rule: nonzero; opacity: 1;"  transform=" translate(-3693.87, -4508.64)" d="M 3667 4533 c -13 -13 -7 -42 12 -52 c 27 -15 56 9 47 37 c -7 21 -44 31 -59 15 z" stroke-linecap="round" />
</g>
</svg>