<svg xmlns="http://www.w3.org/2000/svg" xmlns:xlink="http://www.w3.org/1999/xlink" version="1.1" width="100%"
  height="100%" viewBox="0 0 467 275" xml:space="preserve">
  <defs>
  </defs>
  <g transform="matrix(0.1 0 0 0.1 233.08 137.55)">
    <path
      fill="currentColor"
      stroke="currentColor"
      style="stroke-width: 1; stroke-dasharray: none; stroke-linecap: butt; stroke-dashoffset: 0; stroke-linejoin: miter; stroke-miterlimit: 4; opacity: 1;"
      transform=" translate(-5015, -4445)"
      d="M 4990 4445 c 0 -1340 0 -1375 19 -1375 c 11 0 21 9 25 22 c 8 30 8 2692 0 2712 c -3 9 -15 16 -25 16 c -19 0 -19 -33 -19 -1375 z"
      stroke-linecap="round" />
  </g>
  <g transform="matrix(0.1 0 0 0.1 79.03 132.5)">
    <path
      fill="currentColor"
      stroke="currentColor"
      style="stroke-width: 1; stroke-dasharray: none; stroke-linecap: butt; stroke-dashoffset: 0; stroke-linejoin: miter; stroke-miterlimit: 4; opacity: 1;"
      transform=" translate(-3474.45, -4394.56)"
      d="M 3130 5107 c -179 -90 -320 -236 -391 -407 c -107 -255 -53 -586 136 -838 c 44 -59 55 -98 34 -119 c -19 -19 -6 -66 21 -80 c 37 -19 1044 -18 1080 0 c 26 13 29 34 15 104 c -6 28 -1 41 44 100 c 144 192 216 431 190 634 c -32 260 -206 488 -464 611 c -60 28 -60 28 -330 28 c -270 0 -270 0 -335 -33 z m 7 -289 c 15 -7 58 -30 96 -51 c 67 -40 67 -40 175 -30 c 125 11 186 3 256 -31 c 106 -53 230 -177 224 -226 c -4 -37 -62 -61 -163 -68 c -163 -10 -261 26 -368 135 c -34 35 -72 66 -85 69 c -12 4 -65 -6 -118 -21 c -67 -19 -99 -24 -106 -17 c -14 14 10 51 56 88 c 34 27 34 27 10 66 c -14 21 -27 52 -31 68 c -6 34 7 38 54 18 z m 987 -817 c 6 -9 -44 -93 -75 -126 c -10 -11 -29 -41 -42 -65 c -24 -45 -24 -45 -540 -48 c -516 -2 -516 -2 -522 20 c -4 13 -24 46 -44 73 c -63 86 -92 135 -86 145 c 8 13 1302 14 1309 1 z m -107 -277 c 3 -9 2 -24 -4 -33 c -9 -14 -64 -16 -549 -16 c -512 0 -539 1 -542 18 c -10 49 -29 47 548 47 c 491 0 541 -1 547 -16 z"
      stroke-linecap="round" />
  </g>
  <g transform="matrix(0.1 0 0 0.1 100.97 143.92)">
    <path
      fill="currentColor"
      stroke="currentColor"
      style="stroke-width: 1; stroke-dasharray: none; stroke-linecap: butt; stroke-dashoffset: 0; stroke-linejoin: miter; stroke-miterlimit: 4; opacity: 1;"
      transform=" translate(-3693.87, -4508.64)"
      d="M 3667 4533 c -13 -13 -7 -42 12 -52 c 27 -15 56 9 47 37 c -7 21 -44 31 -59 15 z" stroke-linecap="round" />
  </g>
  <g transform="matrix(0.1 0 0 0.1 431.91 137.89)">
    <path
      fill="currentColor"
      stroke="currentColor"
      style="stroke-width: 1; stroke-dasharray: none; stroke-linecap: butt; stroke-dashoffset: 0; stroke-linejoin: miter; stroke-miterlimit: 4; opacity: 1;"
      transform=" translate(-7003.26, -4448.48)"
      d="M 6910 5033 c -14 -2 -64 -15 -112 -29 c -48 -13 -96 -24 -107 -24 c -20 0 -21 -6 -20 -82 c 1 -64 3 -76 9 -54 c 13 41 67 95 120 118 c 28 13 77 22 131 25 c 117 7 175 -12 245 -82 c 57 -56 74 -98 74 -178 c 0 -109 -63 -172 -248 -247 c -192 -78 -233 -100 -283 -151 c -51 -52 -69 -100 -69 -180 c 0 -80 17 -126 63 -176 c 52 -57 117 -90 206 -105 c 59 -10 88 -9 188 6 c 167 25 153 16 153 94 c -1 65 -1 66 -14 36 c -31 -70 -112 -98 -266 -92 c -84 3 -100 6 -136 31 c -60 40 -94 109 -94 186 c 0 117 48 163 253 246 c 210 85 266 121 314 202 c 97 166 8 373 -186 433 c -59 19 -179 31 -221 23 z"
      stroke-linecap="round" />
  </g>
  <g transform="matrix(0.1 0 0 0.1 341.87 138.05)">
    <path
      fill="currentColor"
      stroke="currentColor"
      style="stroke-width: 1; stroke-dasharray: none; stroke-linecap: butt; stroke-dashoffset: 0; stroke-linejoin: miter; stroke-miterlimit: 4; opacity: 1;"
      transform=" translate(-6102.96, -4450)"
      d="M 5781 4986 c 19 -33 19 -50 17 -549 c -3 -490 -4 -516 -22 -536 c -19 -21 -19 -21 71 -21 c 91 0 91 0 72 37 c -18 35 -19 67 -19 544 c 0 506 0 506 190 513 c 251 9 287 -1 331 -98 c 19 -41 19 -41 19 52 c 0 92 0 92 -340 92 c -339 0 -339 0 -319 -34 z"
      stroke-linecap="round" />
  </g>
</svg>